<?xml version="1.0" encoding="UTF-8"?>
<svg xmlns="http://www.w3.org/2000/svg" xmlns:xlink="http://www.w3.org/1999/xlink" width="845.1pt" height="251.7pt" viewBox="0 0 845.1 251.7" version="1.1">
<defs>
<clipPath id="clip1">
  <path d="M 0 0 L 845.101563 0 L 845.101563 251.699219 L 0 251.699219 Z M 0 0 "/>
</clipPath>
</defs>
<g id="surface1">
<path style=" stroke:none;fill-rule:evenodd;fill:rgb(100%,100%,100%);fill-opacity:1;" d="M 661.652344 187.425781 L 697.496094 187.449219 L 697.554688 121.234375 L 743.152344 187.542969 L 779.300781 187.488281 L 779.394531 64.230469 L 743.363281 64.171875 L 743.378906 131.433594 L 697.496094 64.480469 L 661.691406 64.164063 Z M 661.652344 187.425781 "/>
<path style=" stroke:none;fill-rule:evenodd;fill:rgb(100%,100%,100%);fill-opacity:1;" d="M 340.351563 187.449219 L 378.785156 187.292969 L 378.804688 64.195313 L 340.320313 64.207031 Z M 340.351563 187.449219 "/>
<path style=" stroke:none;fill-rule:evenodd;fill:rgb(100%,100%,100%);fill-opacity:1;" d="M 661.652344 187.425781 L 697.496094 187.449219 L 697.554688 121.234375 L 743.152344 187.542969 L 779.300781 187.488281 L 779.394531 64.230469 L 743.363281 64.171875 L 743.378906 131.433594 L 697.496094 64.480469 L 661.691406 64.164063 Z M 661.652344 187.425781 "/>
<path style=" stroke:none;fill-rule:evenodd;fill:rgb(100%,100%,100%);fill-opacity:1;" d="M 573.265625 92.949219 C 612.835938 82.621094 613.796875 152.566406 587.59375 158.863281 C 547.097656 168.59375 546.601563 99.910156 573.265625 92.949219 Z M 518.675781 133.113281 C 521.828125 174.210938 549.105469 188.460938 587.222656 187.394531 C 627.503906 186.269531 643.800781 155.394531 641.667969 118.585938 C 639.316406 78.003906 610.589844 62.316406 572.785156 64.386719 C 534.070313 66.503906 515.875 96.621094 518.675781 133.113281 Z M 518.675781 133.113281 "/>
<path style=" stroke:none;fill-rule:evenodd;fill:rgb(100%,100%,100%);fill-opacity:1;" d="M 340.351563 187.449219 L 378.785156 187.292969 L 378.804688 64.195313 L 340.320313 64.207031 Z M 340.351563 187.449219 "/>
<path style=" stroke:none;fill-rule:evenodd;fill:rgb(100%,100%,100%);fill-opacity:1;" d="M 188.4375 153.652344 C 191.722656 145.253906 192.203125 139.558594 192.832031 131.386719 L 65.78125 131.496094 L 65.765625 153.652344 Z M 188.4375 153.652344 "/>
<path style=" stroke:none;fill-rule:evenodd;fill:rgb(100%,100%,100%);fill-opacity:1;" d="M 192.832031 120.140625 C 192.121094 111.921875 190.9375 105.917969 188.355469 98.03125 L 65.800781 98.09375 L 65.789063 120.207031 C 108.136719 120.183594 150.484375 120.160156 192.832031 120.140625 Z M 192.832031 120.140625 "/>
<path style=" stroke:none;fill-rule:evenodd;fill:rgb(100%,100%,100%);fill-opacity:1;" d="M 182.605469 86.757813 C 170.292969 68.585938 149.960938 64.207031 129.140625 64.207031 L 65.820313 64.207031 L 65.78125 86.757813 Z M 182.605469 86.757813 "/>
<path style=" stroke:none;fill-rule:evenodd;fill:rgb(100%,100%,100%);fill-opacity:1;" d="M 388.871094 187.207031 L 431.386719 187.445313 L 455.695313 153.421875 L 479.566406 187.316406 L 522.570313 187.4375 L 477.027344 123.5625 L 519.234375 64.480469 L 477.066406 64.1875 L 455.820313 93.824219 L 434.65625 64.140625 L 392.835938 64.179688 L 434.582031 123.449219 Z M 388.871094 187.207031 "/>
<path style=" stroke:none;fill-rule:evenodd;fill:rgb(100%,100%,100%);fill-opacity:1;" d="M 250.128906 158.808594 L 250.136719 93.5 C 277.421875 91.265625 286.59375 98.703125 286.65625 126.0625 C 286.675781 135.15625 286.394531 146.828125 279.53125 153.566406 C 273.785156 159.210938 257.695313 159.964844 250.128906 158.808594 Z M 211.757813 187.421875 L 268.339844 187.421875 C 278.992188 187.421875 288.425781 185.472656 294.289063 183.328125 C 318.207031 174.597656 325.171875 149.140625 325.144531 126.066406 C 325.117188 103.335938 317.9375 78.136719 295.0625 68.785156 C 291.503906 67.5625 285.707031 66.21875 278.730469 65.53125 L 268.339844 64.503906 L 211.824219 64.503906 Z M 211.757813 187.421875 "/>
<path style=" stroke:none;fill-rule:evenodd;fill:rgb(100%,100%,100%);fill-opacity:1;" d="M 182.605469 164.574219 C 170.292969 182.742188 149.960938 187.125 129.140625 187.125 L 65.820313 187.125 L 65.78125 164.574219 Z M 182.605469 164.574219 "/>
<path style=" stroke:none;fill-rule:evenodd;fill:rgb(100%,100%,100%);fill-opacity:1;" d="M 661.652344 187.425781 L 697.496094 187.449219 L 697.554688 121.234375 L 743.152344 187.542969 L 779.300781 187.488281 L 779.394531 64.230469 L 743.363281 64.171875 L 743.378906 131.433594 L 697.496094 64.480469 L 661.691406 64.164063 Z M 661.652344 187.425781 "/>
<path style=" stroke:none;fill-rule:evenodd;fill:rgb(100%,100%,100%);fill-opacity:1;" d="M 340.351563 187.449219 L 378.785156 187.292969 L 378.804688 64.195313 L 340.320313 64.207031 Z M 340.351563 187.449219 "/>
<path style=" stroke:none;fill-rule:evenodd;fill:rgb(100%,100%,100%);fill-opacity:1;" d="M 661.652344 187.425781 L 697.496094 187.449219 L 697.554688 121.234375 L 743.152344 187.542969 L 779.300781 187.488281 L 779.394531 64.230469 L 743.363281 64.171875 L 743.378906 131.433594 L 697.496094 64.480469 L 661.691406 64.164063 Z M 661.652344 187.425781 "/>
<path style=" stroke:none;fill-rule:evenodd;fill:rgb(100%,100%,100%);fill-opacity:1;" d="M 573.265625 92.949219 C 612.835938 82.621094 613.796875 152.566406 587.59375 158.863281 C 547.097656 168.59375 546.601563 99.910156 573.265625 92.949219 Z M 518.675781 133.113281 C 521.828125 174.210938 549.105469 188.460938 587.222656 187.394531 C 627.503906 186.269531 643.800781 155.394531 641.667969 118.585938 C 639.316406 78.003906 610.589844 62.316406 572.785156 64.386719 C 534.070313 66.503906 515.875 96.621094 518.675781 133.113281 Z M 518.675781 133.113281 "/>
<path style=" stroke:none;fill-rule:evenodd;fill:rgb(100%,100%,100%);fill-opacity:1;" d="M 340.351563 187.449219 L 378.785156 187.292969 L 378.804688 64.195313 L 340.320313 64.207031 Z M 340.351563 187.449219 "/>
<path style=" stroke:none;fill-rule:evenodd;fill:rgb(100%,100%,100%);fill-opacity:1;" d="M 188.4375 153.652344 C 191.722656 145.253906 192.203125 139.558594 192.832031 131.386719 L 65.78125 131.496094 L 65.765625 153.652344 Z M 188.4375 153.652344 "/>
<path style=" stroke:none;fill-rule:evenodd;fill:rgb(100%,100%,100%);fill-opacity:1;" d="M 192.832031 120.140625 C 192.121094 111.921875 190.9375 105.917969 188.355469 98.03125 L 65.800781 98.09375 L 65.789063 120.207031 C 108.136719 120.183594 150.484375 120.160156 192.832031 120.140625 Z M 192.832031 120.140625 "/>
<path style=" stroke:none;fill-rule:evenodd;fill:rgb(100%,100%,100%);fill-opacity:1;" d="M 182.605469 86.757813 C 170.292969 68.585938 149.960938 64.207031 129.140625 64.207031 L 65.820313 64.207031 L 65.78125 86.757813 Z M 182.605469 86.757813 "/>
<path style=" stroke:none;fill-rule:evenodd;fill:rgb(100%,100%,100%);fill-opacity:1;" d="M 388.871094 187.207031 L 431.386719 187.445313 L 455.695313 153.421875 L 479.566406 187.316406 L 522.570313 187.4375 L 477.027344 123.5625 L 519.234375 64.480469 L 477.066406 64.1875 L 455.820313 93.824219 L 434.65625 64.140625 L 392.835938 64.179688 L 434.582031 123.449219 Z M 388.871094 187.207031 "/>
<path style=" stroke:none;fill-rule:evenodd;fill:rgb(100%,100%,100%);fill-opacity:1;" d="M 250.128906 158.808594 L 250.136719 93.5 C 277.421875 91.265625 286.59375 98.703125 286.65625 126.0625 C 286.675781 135.15625 286.394531 146.828125 279.53125 153.566406 C 273.785156 159.210938 257.695313 159.964844 250.128906 158.808594 Z M 211.757813 187.421875 L 268.339844 187.421875 C 278.992188 187.421875 288.425781 185.472656 294.289063 183.328125 C 318.207031 174.597656 325.171875 149.140625 325.144531 126.066406 C 325.117188 103.335938 317.9375 78.136719 295.0625 68.785156 C 291.503906 67.5625 285.707031 66.21875 278.730469 65.53125 L 268.339844 64.503906 L 211.824219 64.503906 Z M 211.757813 187.421875 "/>
<path style=" stroke:none;fill-rule:evenodd;fill:rgb(100%,100%,100%);fill-opacity:1;" d="M 182.605469 164.574219 C 170.292969 182.742188 149.960938 187.125 129.140625 187.125 L 65.820313 187.125 L 65.78125 164.574219 Z M 182.605469 164.574219 "/>
<path style=" stroke:none;fill-rule:evenodd;fill:rgb(100%,100%,100%);fill-opacity:1;" d="M 661.652344 187.425781 L 697.496094 187.449219 L 697.554688 121.234375 L 743.152344 187.542969 L 779.300781 187.488281 L 779.394531 64.230469 L 743.363281 64.171875 L 743.378906 131.433594 L 697.496094 64.480469 L 661.691406 64.164063 Z M 661.652344 187.425781 "/>
<path style=" stroke:none;fill-rule:evenodd;fill:rgb(100%,100%,100%);fill-opacity:1;" d="M 340.351563 187.449219 L 378.785156 187.292969 L 378.804688 64.195313 L 340.320313 64.207031 Z M 340.351563 187.449219 "/>
<path style=" stroke:none;fill-rule:evenodd;fill:rgb(100%,100%,100%);fill-opacity:1;" d="M 661.652344 187.425781 L 697.496094 187.449219 L 697.554688 121.234375 L 743.152344 187.542969 L 779.300781 187.488281 L 779.394531 64.230469 L 743.363281 64.171875 L 743.378906 131.433594 L 697.496094 64.480469 L 661.691406 64.164063 Z M 661.652344 187.425781 "/>
<path style=" stroke:none;fill-rule:evenodd;fill:rgb(100%,100%,100%);fill-opacity:1;" d="M 573.265625 92.949219 C 612.835938 82.621094 613.796875 152.566406 587.59375 158.863281 C 547.097656 168.59375 546.601563 99.910156 573.265625 92.949219 Z M 518.675781 133.113281 C 521.828125 174.210938 549.105469 188.460938 587.222656 187.394531 C 627.503906 186.269531 643.800781 155.394531 641.667969 118.585938 C 639.316406 78.003906 610.589844 62.316406 572.785156 64.386719 C 534.070313 66.503906 515.875 96.621094 518.675781 133.113281 Z M 518.675781 133.113281 "/>
<path style=" stroke:none;fill-rule:evenodd;fill:rgb(100%,100%,100%);fill-opacity:1;" d="M 340.351563 187.449219 L 378.785156 187.292969 L 378.804688 64.195313 L 340.320313 64.207031 Z M 340.351563 187.449219 "/>
<path style=" stroke:none;fill-rule:evenodd;fill:rgb(100%,100%,100%);fill-opacity:1;" d="M 188.4375 153.652344 C 191.722656 145.253906 192.203125 139.558594 192.832031 131.386719 L 65.78125 131.496094 L 65.765625 153.652344 Z M 188.4375 153.652344 "/>
<path style=" stroke:none;fill-rule:evenodd;fill:rgb(100%,100%,100%);fill-opacity:1;" d="M 192.832031 120.140625 C 192.121094 111.921875 190.9375 105.917969 188.355469 98.03125 L 65.800781 98.09375 L 65.789063 120.207031 C 108.136719 120.183594 150.484375 120.160156 192.832031 120.140625 Z M 192.832031 120.140625 "/>
<path style=" stroke:none;fill-rule:evenodd;fill:rgb(100%,100%,100%);fill-opacity:1;" d="M 182.605469 86.757813 C 170.292969 68.585938 149.960938 64.207031 129.140625 64.207031 L 65.820313 64.207031 L 65.78125 86.757813 Z M 182.605469 86.757813 "/>
<path style=" stroke:none;fill-rule:evenodd;fill:rgb(100%,100%,100%);fill-opacity:1;" d="M 388.871094 187.207031 L 431.386719 187.445313 L 455.695313 153.421875 L 479.566406 187.316406 L 522.570313 187.4375 L 477.027344 123.5625 L 519.234375 64.480469 L 477.066406 64.1875 L 455.820313 93.824219 L 434.65625 64.140625 L 392.835938 64.179688 L 434.582031 123.449219 Z M 388.871094 187.207031 "/>
<path style=" stroke:none;fill-rule:evenodd;fill:rgb(100%,100%,100%);fill-opacity:1;" d="M 250.128906 158.808594 L 250.136719 93.5 C 277.421875 91.265625 286.59375 98.703125 286.65625 126.0625 C 286.675781 135.15625 286.394531 146.828125 279.53125 153.566406 C 273.785156 159.210938 257.695313 159.964844 250.128906 158.808594 Z M 211.757813 187.421875 L 268.339844 187.421875 C 278.992188 187.421875 288.425781 185.472656 294.289063 183.328125 C 318.207031 174.597656 325.171875 149.140625 325.144531 126.066406 C 325.117188 103.335938 317.9375 78.136719 295.0625 68.785156 C 291.503906 67.5625 285.707031 66.21875 278.730469 65.53125 L 268.339844 64.503906 L 211.824219 64.503906 Z M 211.757813 187.421875 "/>
<path style=" stroke:none;fill-rule:evenodd;fill:rgb(100%,100%,100%);fill-opacity:1;" d="M 182.605469 164.574219 C 170.292969 182.742188 149.960938 187.125 129.140625 187.125 L 65.820313 187.125 L 65.78125 164.574219 Z M 182.605469 164.574219 "/>
<g clip-path="url(#clip1)" clip-rule="nonzero">
<path style=" stroke:none;fill-rule:evenodd;fill:rgb(13.73%,24.31%,45.10%);fill-opacity:1;" d="M 0.0078125 251.699219 L 845.152344 251.699219 L 845.152344 -0.0507813 L 0.0078125 -0.0507813 Z M 0.0078125 251.699219 "/>
</g>
<path style=" stroke:none;fill-rule:evenodd;fill:rgb(100%,100%,100%);fill-opacity:1;" d="M 663.730469 186.753906 L 699.578125 186.78125 L 699.636719 120.566406 L 745.234375 186.875 L 781.378906 186.820313 L 781.476563 63.5625 L 745.445313 63.503906 L 745.460938 130.765625 L 699.574219 63.8125 L 663.773438 63.496094 Z M 663.730469 186.753906 "/>
<path style=" stroke:none;fill-rule:evenodd;fill:rgb(100%,100%,100%);fill-opacity:1;" d="M 342.433594 186.78125 L 380.867188 186.625 L 380.886719 63.527344 L 342.402344 63.539063 Z M 342.433594 186.78125 "/>
<path style=" stroke:none;fill-rule:evenodd;fill:rgb(100%,100%,100%);fill-opacity:1;" d="M 663.730469 186.753906 L 699.578125 186.78125 L 699.636719 120.566406 L 745.234375 186.875 L 781.378906 186.820313 L 781.476563 63.5625 L 745.445313 63.503906 L 745.460938 130.765625 L 699.574219 63.8125 L 663.773438 63.496094 Z M 663.730469 186.753906 "/>
<path style=" stroke:none;fill-rule:evenodd;fill:rgb(100%,100%,100%);fill-opacity:1;" d="M 575.347656 92.28125 C 614.917969 81.949219 615.878906 151.898438 589.675781 158.195313 C 549.179688 167.925781 548.683594 99.238281 575.347656 92.28125 Z M 520.757813 132.445313 C 523.910156 173.542969 551.1875 187.792969 589.304688 186.726563 C 629.585938 185.601563 645.882813 154.726563 643.75 117.917969 C 641.398438 77.332031 612.671875 61.648438 574.867188 63.71875 C 536.152344 65.835938 517.957031 95.953125 520.757813 132.445313 Z M 520.757813 132.445313 "/>
<path style=" stroke:none;fill-rule:evenodd;fill:rgb(100%,100%,100%);fill-opacity:1;" d="M 342.433594 186.78125 L 380.867188 186.625 L 380.886719 63.527344 L 342.402344 63.539063 Z M 342.433594 186.78125 "/>
<path style=" stroke:none;fill-rule:evenodd;fill:rgb(100%,100%,100%);fill-opacity:1;" d="M 390.953125 186.539063 L 433.46875 186.777344 L 457.773438 152.753906 L 481.648438 186.648438 L 524.652344 186.769531 L 479.105469 122.894531 L 521.316406 63.8125 L 479.148438 63.519531 L 457.902344 93.15625 L 436.738281 63.472656 L 394.917969 63.511719 L 436.664063 122.78125 Z M 390.953125 186.539063 "/>
<path style=" stroke:none;fill-rule:evenodd;fill:rgb(100%,100%,100%);fill-opacity:1;" d="M 252.210938 158.140625 L 252.21875 92.832031 C 279.5 90.597656 288.675781 98.035156 288.738281 125.394531 C 288.757813 134.488281 288.476563 146.160156 281.613281 152.898438 C 275.867188 158.542969 259.777344 159.296875 252.210938 158.140625 Z M 213.839844 186.753906 L 270.421875 186.753906 C 281.074219 186.753906 290.503906 184.800781 296.371094 182.660156 C 320.289063 173.929688 327.253906 148.472656 327.226563 125.398438 C 327.199219 102.667969 320.019531 77.46875 297.144531 68.117188 C 293.585938 66.894531 287.789063 65.550781 280.8125 64.863281 L 270.421875 63.835938 L 213.90625 63.835938 Z M 213.839844 186.753906 "/>
<path style=" stroke:none;fill-rule:evenodd;fill:rgb(100%,100%,100%);fill-opacity:1;" d="M 186.859375 152.984375 C 190.144531 144.582031 190.628906 138.890625 191.257813 130.71875 L 64.203125 130.828125 L 64.191406 152.984375 Z M 186.859375 152.984375 "/>
<path style=" stroke:none;fill-rule:evenodd;fill:rgb(100%,100%,100%);fill-opacity:1;" d="M 191.253906 119.472656 C 190.542969 111.253906 189.359375 105.25 186.78125 97.363281 L 64.222656 97.425781 L 64.210938 119.539063 C 106.558594 119.515625 148.90625 119.492188 191.253906 119.472656 Z M 191.253906 119.472656 "/>
<path style=" stroke:none;fill-rule:evenodd;fill:rgb(100%,100%,100%);fill-opacity:1;" d="M 181.03125 86.089844 C 168.71875 67.917969 148.386719 63.539063 127.5625 63.539063 L 64.246094 63.539063 L 64.203125 86.089844 Z M 181.03125 86.089844 "/>
<path style=" stroke:none;fill-rule:evenodd;fill:rgb(100%,100%,100%);fill-opacity:1;" d="M 181.03125 163.90625 C 168.71875 182.074219 148.386719 186.457031 127.5625 186.457031 L 64.246094 186.457031 L 64.203125 163.90625 Z M 181.03125 163.90625 "/>
</g>
</svg>
